inDegrees=yes
name=ik_lifting_orientations
DataType=double
version=3
OpenSimVersion=4.5-2024-01-10-34fd6af
endheader
time	pelvis_tilt	pelvis_list	pelvis_rotation	pelvis_tx	pelvis_ty	pelvis_tz	hip_flexion_r	hip_adduction_r	hip_rotation_r	knee_angle_r	knee_angle_r_beta	ankle_angle_r	subtalar_angle_r	mtp_angle_r	hip_flexion_l	hip_adduction_l	hip_rotation_l	knee_angle_l	knee_angle_l_beta	ankle_angle_l	subtalar_angle_l	mtp_angle_l	lumbar_extension	lumbar_bending	lumbar_rotation	arm_flex_r	arm_add_r	arm_rot_r	elbow_flex_r	pro_sup_r	wrist_flex_r	wrist_dev_r	arm_flex_l	arm_add_l	arm_rot_l	elbow_flex_l	pro_sup_l	wrist_flex_l	wrist_dev_l
0.64	-11.99631428628181	-24.56057546561684	-74.69650393148117	0	0.9399999998679526	0	45.69019218439352	-10.58632518862285	0	61.24926982680022	1.069001422920081	-5.047310549732202	0	0	45.69019218439352	-10.58632518862285	0	61.24926982680022	1.069001422920081	-5.047310549732202	0	0	-74.49238247596334	31.93344280799496	9.289915325267156	50.63782289617151	-14.66097558542847	4.995759657851986	7.071949206452848	0.6386323708292204	0	0	0	-10.04687179931098	0	89.40688598496982	0.6386323708292204	0	0
0.65	-11.68717030562335	-26.09213406816903	-74.82315087199156	0	0.9399999998679526	0	45.68973819684685	-10.58497739343335	0	61.2486249629093	1.068990167921957	-5.047168730740924	0	0	45.68973819684685	-10.58497739343335	0	61.2486249629093	1.068990167921957	-5.047168730740924	0	0	-76.16604312475316	31.71335205906465	9.522402066277557	50.57817167983415	-14.55929628347881	4.323252794667511	6.358390189210433	0.6383401129767611	0	0	0	-10.04854286719513	0	89.4071573322589	0.6383401129767611	0	0
0.66	-11.69470110262926	-26.09347162434145	-74.84673257227382	0	0.9399999998679526	0	45.68964643430745	-10.58470621439147	0	61.24849423205871	1.06898788623818	-5.047140228143997	0	0	45.68964643430745	-10.58470621439147	0	61.24849423205871	1.06898788623818	-5.047140228143997	0	0	-76.16186360668752	31.67410896433806	9.543449999853861	50.46914187927428	-14.52927006262821	4.835618239155751	6.391816805773595	0.6382809673145539	0	0	0	-10.04888138937292	0	89.40721224614923	0.6382809673145539	0	0
0.67	-12.28362182229829	-26.29448139516514	-74.11736144759696	0	0.9399999998679526	0	45.68893706165303	-10.58260595232906	0	61.24748745459477	1.0689703146566	-5.046919556313263	0	0	45.68893706165303	-10.58260595232906	0	61.24748745459477	1.0689703146566	-5.046919556313263	0	0	-77.66040310330271	31.9249563217737	11.40142351913075	50.26737367275317	-14.96112469227348	3.38788382116738	7.496188678108649	0.6378243157349579	0	0	0	-10.05149193482527	0	89.40763622506792	0.6378243157349579	0	0
0.68	-11.18989357197271	-26.22029074061064	-73.0584663674224	0	0.9399999998679526	0	45.68860275202029	-10.58163597626253	0	61.24700530808537	1.068961899612534	-5.046818044019189	0	0	45.68860275202029	-10.58163597626253	0	61.24700530808537	1.068961899612534	-5.046818044019189	0	0	-77.20593834318676	32.28468782403724	10.14684736853755	50.28478608006445	-14.96395031475751	3.401975427742799	7.480329281276428	0.6376077455979605	0	0	0	-10.05273660775781	0	89.40783730000713	0.6376077455979605	0	0
0.6899999999999999	-11.66237068991387	-27.4130481870171	-72.3511195745846	0	0.9399999998679526	0	45.68821980521152	-10.58050075697608	0	61.24646298171901	1.06895243423182	-5.046698787327934	0	0	45.68821980521152	-10.58050075697608	0	61.24646298171901	1.06895243423182	-5.046698787327934	0	0	-80.30522509552245	33.06945742749394	11.38296324565336	51.69394524348419	-14.49021444623988	4.097296821956157	6.460544117136434	0.6373613800434756	0	0	0	-10.05414425378839	0	89.40806603851362	0.6373613800434756	0	0
0.7	-11.67290301092299	-27.42514544721827	-72.33998593776462	0	0.9399999998679526	0	45.68802782111889	-10.57993446171534	0	61.24619014313449	1.068947672300194	-5.046639364313104	0	0	45.68802782111889	-10.57993446171534	0	61.24619014313449	1.068947672300194	-5.046639364313104	0	0	-80.35491484126266	33.08414041880566	11.41262783728777	50.73027876521045	-15.2128482679728	3.757625881809874	7.249690210982217	0.6372376928925703	0	0	0	-10.05485179323829	0	89.408180876058	0.6372376928925703	0	0
0.71	-11.67161025077802	-27.41521823660385	-72.35285239699481	0	0.9399999998679526	0	45.68771708709755	-10.57901610716398	0	61.2457495281319	1.068939982117665	-5.046542983569084	0	0	45.68771708709755	-10.57901610716398	0	61.2457495281319	1.068939982117665	-5.046542983569084	0	0	-81.46944555983256	33.12010467727286	12.60022476440162	51.636633785256	-15.271625108283	3.000048236371783	7.374618120446955	0.6370376566861813	0	0	0	-10.05599529370159	0	89.40836660000825	0.6370376566861813	0	0
